<svg width="26" height="26" viewBox="0 0 26 26" fill="none" xmlns="http://www.w3.org/2000/svg">
<path d="M4.96484 13.9961C6.20443 15.2357 7.70964 15.8555 9.48047 15.8555C11.2513 15.8555 12.7565 15.2357 13.9961 13.9961C15.2357 12.7565 15.8555 11.2513 15.8555 9.48047C15.8555 7.70964 15.2357 6.20443 13.9961 4.96484C12.7565 3.72526 11.2513 3.10547 9.48047 3.10547C7.70964 3.10547 6.20443 3.72526 4.96484 4.96484C3.72526 6.20443 3.10547 7.70964 3.10547 9.48047C3.10547 11.2513 3.72526 12.7565 4.96484 13.9961ZM17.9805 15.8555L25.0195 22.8945L22.8945 25.0195L15.8555 17.9805V16.8516L15.457 16.4531C13.7747 17.9141 11.7826 18.6445 9.48047 18.6445C6.91276 18.6445 4.72135 17.7591 2.90625 15.9883C1.13542 14.2174 0.25 12.0482 0.25 9.48047C0.25 6.91276 1.13542 4.74349 2.90625 2.97266C4.72135 1.15755 6.91276 0.25 9.48047 0.25C12.0482 0.25 14.2174 1.15755 15.9883 2.97266C17.7591 4.74349 18.6445 6.91276 18.6445 9.48047C18.6445 10.4102 18.4232 11.4727 17.9805 12.668C17.5378 13.819 17.0286 14.7487 16.4531 15.457L16.8516 15.8555H17.9805Z" fill="#F54D1C"/>
</svg>
